{
    "asset" : {
        "generator" : "Khronos glTF Blender I/O v1.3.48",
        "version" : "2.0"
    },
    "scene" : 0,
    "scenes" : [
        {
            "name" : "Scene",
            "nodes" : [
                0
            ]
        }
    ],
    "nodes" : [
        {
            "mesh" : 0,
            "name" : "Cube.001",
            "scale" : [
                35,
                12.5,
                1
            ],
            "translation" : [
                -6.4866461753845215,
                4.094912052154541,
                0.9540312886238098
            ]
        }
    ],
    "meshes" : [
        {
            "name" : "Cube.002",
            "primitives" : [
                {
                    "attributes" : {
                        "POSITION" : 0,
                        "NORMAL" : 1,
                        "TEXCOORD_0" : 2
                    },
                    "indices" : 3
                }
            ]
        }
    ],
    "accessors" : [
        {
            "bufferView" : 0,
            "componentType" : 5126,
            "count" : 146,
            "max" : [
                1,
                1,
                1
            ],
            "min" : [
                -1,
                -1,
                -41
            ],
            "type" : "VEC3"
        },
        {
            "bufferView" : 1,
            "componentType" : 5126,
            "count" : 146,
            "type" : "VEC3"
        },
        {
            "bufferView" : 2,
            "componentType" : 5126,
            "count" : 146,
            "type" : "VEC2"
        },
        {
            "bufferView" : 3,
            "componentType" : 5123,
            "count" : 252,
            "type" : "SCALAR"
        }
    ],
    "bufferViews" : [
        {
            "buffer" : 0,
            "byteLength" : 1752,
            "byteOffset" : 0
        },
        {
            "buffer" : 0,
            "byteLength" : 1752,
            "byteOffset" : 1752
        },
        {
            "buffer" : 0,
            "byteLength" : 1168,
            "byteOffset" : 3504
        },
        {
            "buffer" : 0,
            "byteLength" : 504,
            "byteOffset" : 4672
        }
    ],
    "buffers" : [
        {
            "byteLength" : 5176,
            "uri" : "scene.bin"
        }
    ]
}
