{
    "asset" : {
        "generator" : "Khronos glTF Blender I/O v1.3.48",
        "version" : "2.0"
    },
    "scene" : 0,
    "scenes" : [
        {
            "name" : "Scene",
            "nodes" : [
                0,
                1,
                2,
                3,
                4,
                5
            ]
        }
    ],
    "nodes" : [
        {
            "name" : "Light",
            "rotation" : [
                0.16907575726509094,
                0.7558803558349609,
                -0.27217137813568115,
                0.570947527885437
            ],
            "translation" : [
                4.076245307922363,
                5.903861999511719,
                -1.0054539442062378
            ]
        },
        {
            "name" : "Camera",
            "rotation" : [
                0.483536034822464,
                0.33687159419059753,
                -0.20870360732078552,
                0.7804827094078064
            ],
            "translation" : [
                7.358891487121582,
                4.958309173583984,
                6.925790786743164
            ]
        },
        {
            "mesh" : 0,
            "name" : "Cube.002",
            "scale" : [
                35,
                12.5,
                1
            ],
            "translation" : [
                -0.0011992454528808594,
                12.522466659545898,
                0.9540312886238098
            ]
        },
        {
            "name" : "BezierCircle",
            "scale" : [
                14.991263389587402,
                1,
                14.991263389587402
            ],
            "translation" : [
                0,
                0,
                27
            ]
        },
        {
            "name" : "Cube.001",
            "scale" : [
                35,
                12.5,
                1
            ],
            "translation" : [
                -0.0011992454528808594,
                12.522466659545898,
                0.9540312886238098
            ]
        },
        {
            "name" : "Cube.003",
            "scale" : [
                35,
                12.5,
                1
            ],
            "translation" : [
                -13.001199722290039,
                12.522466659545898,
                0.9540312886238098
            ]
        }
    ],
    "meshes" : [
        {
            "name" : "Cube.003",
            "primitives" : [
                {
                    "attributes" : {
                        "POSITION" : 0,
                        "NORMAL" : 1,
                        "TEXCOORD_0" : 2
                    },
                    "indices" : 3
                }
            ]
        }
    ],
    "accessors" : [
        {
            "bufferView" : 0,
            "componentType" : 5126,
            "count" : 552,
            "max" : [
                1,
                1.159999966621399,
                49
            ],
            "min" : [
                -1,
                -1.402976393699646,
                -3
            ],
            "type" : "VEC3"
        },
        {
            "bufferView" : 1,
            "componentType" : 5126,
            "count" : 552,
            "type" : "VEC3"
        },
        {
            "bufferView" : 2,
            "componentType" : 5126,
            "count" : 552,
            "type" : "VEC2"
        },
        {
            "bufferView" : 3,
            "componentType" : 5123,
            "count" : 1134,
            "type" : "SCALAR"
        }
    ],
    "bufferViews" : [
        {
            "buffer" : 0,
            "byteLength" : 6624,
            "byteOffset" : 0
        },
        {
            "buffer" : 0,
            "byteLength" : 6624,
            "byteOffset" : 6624
        },
        {
            "buffer" : 0,
            "byteLength" : 4416,
            "byteOffset" : 13248
        },
        {
            "buffer" : 0,
            "byteLength" : 2268,
            "byteOffset" : 17664
        }
    ],
    "buffers" : [
        {
            "byteLength" : 19932,
            "uri" : "scene.bin"
        }
    ]
}
