{
    "asset" : {
        "generator" : "Khronos glTF Blender I/O v1.3.48",
        "version" : "2.0"
    },
    "scene" : 0,
    "scenes" : [
        {
            "name" : "Scene",
            "nodes" : [
                1,
                3,
                5
            ]
        }
    ],
    "nodes" : [
        {
            "mesh" : 0,
            "name" : "ind_window_roof_03_inst_001_ind_steel_window_01_mt_0"
        },
        {
            "children" : [
                0
            ],
            "name" : "ind_window_roof_03_inst_001",
            "rotation" : [
                0,
                0.7071068286895752,
                0,
                0.7071068286895752
            ],
            "scale" : [
                0.009999999776482582,
                0.009999999776482582,
                0.009999999776482582
            ],
            "translation" : [
                -11.5,
                0,
                1.25
            ]
        },
        {
            "mesh" : 1,
            "name" : "ind_window_roof_03_inst_001_ind_steel_window_01_mt_0.001"
        },
        {
            "children" : [
                2
            ],
            "name" : "ind_window_roof_03_inst_001.001",
            "rotation" : [
                0,
                0.7071068286895752,
                0,
                0.7071068286895752
            ],
            "scale" : [
                0.009999999776482582,
                0.009999999776482582,
                0.009999999776482582
            ],
            "translation" : [
                -16.474271774291992,
                0,
                1.25
            ]
        },
        {
            "mesh" : 2,
            "name" : "ind_window_roof_03_inst_001_ind_steel_window_01_mt_0.002"
        },
        {
            "children" : [
                4
            ],
            "name" : "ind_window_roof_03_inst_001.002",
            "rotation" : [
                0,
                0.7071068286895752,
                0,
                0.7071068286895752
            ],
            "scale" : [
                0.009999999776482582,
                0.009999999776482582,
                0.009999999776482582
            ],
            "translation" : [
                -21.45189666748047,
                0,
                1.25
            ]
        }
    ],
    "materials" : [
        {
            "doubleSided" : true,
            "emissiveFactor" : [
                0,
                0,
                0
            ],
            "name" : "ind_steel_window_01_mt.001",
            "normalTexture" : {
                "index" : 0,
                "texCoord" : 0
            },
            "pbrMetallicRoughness" : {
                "baseColorTexture" : {
                    "index" : 1,
                    "texCoord" : 0
                },
                "metallicRoughnessTexture" : {
                    "index" : 2,
                    "texCoord" : 0
                }
            }
        }
    ],
    "meshes" : [
        {
            "name" : "ind_window_roof_03_inst_001_ind_steel_window_01_mt_0.001",
            "primitives" : [
                {
                    "attributes" : {
                        "POSITION" : 0,
                        "NORMAL" : 1,
                        "TEXCOORD_0" : 2,
                        "TEXCOORD_1" : 3,
                        "TEXCOORD_2" : 4,
                        "TEXCOORD_3" : 5
                    },
                    "indices" : 6,
                    "material" : 0
                }
            ]
        },
        {
            "name" : "ind_window_roof_03_inst_001_ind_steel_window_01_mt_0.002",
            "primitives" : [
                {
                    "attributes" : {
                        "POSITION" : 7,
                        "NORMAL" : 8,
                        "TEXCOORD_0" : 9,
                        "TEXCOORD_1" : 10,
                        "TEXCOORD_2" : 11,
                        "TEXCOORD_3" : 12
                    },
                    "indices" : 6,
                    "material" : 0
                }
            ]
        },
        {
            "name" : "ind_window_roof_03_inst_001_ind_steel_window_01_mt_0.003",
            "primitives" : [
                {
                    "attributes" : {
                        "POSITION" : 13,
                        "NORMAL" : 14,
                        "TEXCOORD_0" : 15,
                        "TEXCOORD_1" : 16,
                        "TEXCOORD_2" : 17,
                        "TEXCOORD_3" : 18
                    },
                    "indices" : 6,
                    "material" : 0
                }
            ]
        }
    ],
    "textures" : [
        {
            "source" : 0
        },
        {
            "source" : 1
        },
        {
            "source" : 2
        }
    ],
    "images" : [
        {
            "mimeType" : "image/png",
            "name" : "ind_steel_window_01_mt_normal",
            "uri" : "Textures/ind_steel_window_01_mt_normal.png"
        },
        {
            "mimeType" : "image/png",
            "name" : "ind_steel_window_01_mt_baseColor",
            "uri" : "Textures/ind_steel_window_01_mt_baseColor.png"
        },
        {
            "mimeType" : "image/png",
            "name" : "ind_glass_01_mt_metallicRoughness",
            "uri" : "Textures/ind_glass_01_mt_metallicRoughness.png"
        }
    ],
    "accessors" : [
        {
            "bufferView" : 0,
            "componentType" : 5126,
            "count" : 1736,
            "max" : [
                202.74609375,
                180.45745849609375,
                503.5975036621094
            ],
            "min" : [
                -400.94403076171875,
                -7.629396350239404e-06,
                -0.8140869140625
            ],
            "type" : "VEC3"
        },
        {
            "bufferView" : 1,
            "componentType" : 5126,
            "count" : 1736,
            "type" : "VEC3"
        },
        {
            "bufferView" : 2,
            "componentType" : 5126,
            "count" : 1736,
            "type" : "VEC2"
        },
        {
            "bufferView" : 3,
            "componentType" : 5126,
            "count" : 1736,
            "type" : "VEC2"
        },
        {
            "bufferView" : 4,
            "componentType" : 5126,
            "count" : 1736,
            "type" : "VEC2"
        },
        {
            "bufferView" : 5,
            "componentType" : 5126,
            "count" : 1736,
            "type" : "VEC2"
        },
        {
            "bufferView" : 6,
            "componentType" : 5123,
            "count" : 4044,
            "type" : "SCALAR"
        },
        {
            "bufferView" : 7,
            "componentType" : 5126,
            "count" : 1736,
            "max" : [
                202.74609375,
                180.45745849609375,
                503.5975036621094
            ],
            "min" : [
                -400.94403076171875,
                -7.629396350239404e-06,
                -0.8140869140625
            ],
            "type" : "VEC3"
        },
        {
            "bufferView" : 8,
            "componentType" : 5126,
            "count" : 1736,
            "type" : "VEC3"
        },
        {
            "bufferView" : 9,
            "componentType" : 5126,
            "count" : 1736,
            "type" : "VEC2"
        },
        {
            "bufferView" : 10,
            "componentType" : 5126,
            "count" : 1736,
            "type" : "VEC2"
        },
        {
            "bufferView" : 11,
            "componentType" : 5126,
            "count" : 1736,
            "type" : "VEC2"
        },
        {
            "bufferView" : 12,
            "componentType" : 5126,
            "count" : 1736,
            "type" : "VEC2"
        },
        {
            "bufferView" : 13,
            "componentType" : 5126,
            "count" : 1736,
            "max" : [
                202.74609375,
                180.45745849609375,
                503.5975036621094
            ],
            "min" : [
                -400.94403076171875,
                -7.629396350239404e-06,
                -0.8140869140625
            ],
            "type" : "VEC3"
        },
        {
            "bufferView" : 14,
            "componentType" : 5126,
            "count" : 1736,
            "type" : "VEC3"
        },
        {
            "bufferView" : 15,
            "componentType" : 5126,
            "count" : 1736,
            "type" : "VEC2"
        },
        {
            "bufferView" : 16,
            "componentType" : 5126,
            "count" : 1736,
            "type" : "VEC2"
        },
        {
            "bufferView" : 17,
            "componentType" : 5126,
            "count" : 1736,
            "type" : "VEC2"
        },
        {
            "bufferView" : 18,
            "componentType" : 5126,
            "count" : 1736,
            "type" : "VEC2"
        }
    ],
    "bufferViews" : [
        {
            "buffer" : 0,
            "byteLength" : 20832,
            "byteOffset" : 0
        },
        {
            "buffer" : 0,
            "byteLength" : 20832,
            "byteOffset" : 20832
        },
        {
            "buffer" : 0,
            "byteLength" : 13888,
            "byteOffset" : 41664
        },
        {
            "buffer" : 0,
            "byteLength" : 13888,
            "byteOffset" : 55552
        },
        {
            "buffer" : 0,
            "byteLength" : 13888,
            "byteOffset" : 69440
        },
        {
            "buffer" : 0,
            "byteLength" : 13888,
            "byteOffset" : 83328
        },
        {
            "buffer" : 0,
            "byteLength" : 8088,
            "byteOffset" : 97216
        },
        {
            "buffer" : 0,
            "byteLength" : 20832,
            "byteOffset" : 105304
        },
        {
            "buffer" : 0,
            "byteLength" : 20832,
            "byteOffset" : 126136
        },
        {
            "buffer" : 0,
            "byteLength" : 13888,
            "byteOffset" : 146968
        },
        {
            "buffer" : 0,
            "byteLength" : 13888,
            "byteOffset" : 160856
        },
        {
            "buffer" : 0,
            "byteLength" : 13888,
            "byteOffset" : 174744
        },
        {
            "buffer" : 0,
            "byteLength" : 13888,
            "byteOffset" : 188632
        },
        {
            "buffer" : 0,
            "byteLength" : 20832,
            "byteOffset" : 202520
        },
        {
            "buffer" : 0,
            "byteLength" : 20832,
            "byteOffset" : 223352
        },
        {
            "buffer" : 0,
            "byteLength" : 13888,
            "byteOffset" : 244184
        },
        {
            "buffer" : 0,
            "byteLength" : 13888,
            "byteOffset" : 258072
        },
        {
            "buffer" : 0,
            "byteLength" : 13888,
            "byteOffset" : 271960
        },
        {
            "buffer" : 0,
            "byteLength" : 13888,
            "byteOffset" : 285848
        }
    ],
    "buffers" : [
        {
            "byteLength" : 299736,
            "uri" : "scene.bin"
        }
    ]
}
