{
    "asset" : {
        "generator" : "Khronos glTF Blender I/O v1.3.48",
        "version" : "2.0"
    },
    "scene" : 0,
    "scenes" : [
        {
            "name" : "Scene",
            "nodes" : [
                0,
                1,
                2,
                3,
                4,
                5
            ]
        }
    ],
    "nodes" : [
        {
            "mesh" : 0,
            "name" : "Plane",
            "rotation" : [
                0,
                0,
                -0.7071067690849304,
                0.7071068286895752
            ],
            "scale" : [
                -3.0282955169677734,
                0.9873837828636169,
                3.0087509155273438
            ],
            "translation" : [
                -8.010011672973633,
                3.0217185020446777,
                -0.0023767538368701935
            ]
        },
        {
            "mesh" : 1,
            "name" : "Plane.001",
            "rotation" : [
                0,
                0,
                -0.7071067690849304,
                0.7071068286895752
            ],
            "scale" : [
                -3.0282955169677734,
                0.9873837828636169,
                1.4908729791641235
            ],
            "translation" : [
                -8.010011672973633,
                3.0217185020446777,
                -7.458423614501953
            ]
        },
        {
            "mesh" : 2,
            "name" : "Plane.002",
            "rotation" : [
                0.5,
                -0.4999999701976776,
                -0.5,
                0.5000000596046448
            ],
            "scale" : [
                -3.0282955169677734,
                0.9873837828636169,
                1.4908729791641235
            ],
            "translation" : [
                2.424609899520874,
                3.0217185020446777,
                -9.009783744812012
            ]
        },
        {
            "mesh" : 3,
            "name" : "Plane.003",
            "rotation" : [
                0,
                0,
                -0.7071067690849304,
                0.7071068286895752
            ],
            "scale" : [
                -3.0282955169677734,
                0.9873837828636169,
                -1.4908729791641235
            ],
            "translation" : [
                -8.010011672973633,
                3.0217185020446777,
                7.4453911781311035
            ]
        },
        {
            "mesh" : 4,
            "name" : "Plane.004",
            "rotation" : [
                0.5,
                -0.4999999701976776,
                -0.5,
                0.5000000596046448
            ],
            "scale" : [
                -3.0282955169677734,
                -0.9873837828636169,
                1.4908729791641235
            ],
            "translation" : [
                2.424610137939453,
                3.0217185020446777,
                8.996749877929688
            ]
        },
        {
            "mesh" : 5,
            "name" : "Plane.005",
            "scale" : [
                3.0282723903656006,
                1.0161198377609253,
                6.057373046875
            ],
            "translation" : [
                -1.9795268774032593,
                8.966567993164062,
                0
            ]
        }
    ],
    "meshes" : [
        {
            "name" : "Plane",
            "primitives" : [
                {
                    "attributes" : {
                        "POSITION" : 0,
                        "NORMAL" : 1,
                        "TEXCOORD_0" : 2
                    },
                    "indices" : 3
                }
            ]
        },
        {
            "name" : "Plane.001",
            "primitives" : [
                {
                    "attributes" : {
                        "POSITION" : 4,
                        "NORMAL" : 5,
                        "TEXCOORD_0" : 6
                    },
                    "indices" : 7
                }
            ]
        },
        {
            "name" : "Plane.002",
            "primitives" : [
                {
                    "attributes" : {
                        "POSITION" : 8,
                        "NORMAL" : 9,
                        "TEXCOORD_0" : 10
                    },
                    "indices" : 11
                }
            ]
        },
        {
            "name" : "Plane.003",
            "primitives" : [
                {
                    "attributes" : {
                        "POSITION" : 12,
                        "NORMAL" : 13,
                        "TEXCOORD_0" : 14
                    },
                    "indices" : 7
                }
            ]
        },
        {
            "name" : "Plane.004",
            "primitives" : [
                {
                    "attributes" : {
                        "POSITION" : 15,
                        "NORMAL" : 16,
                        "TEXCOORD_0" : 17
                    },
                    "indices" : 11
                }
            ]
        },
        {
            "name" : "Plane.005",
            "primitives" : [
                {
                    "attributes" : {
                        "POSITION" : 18,
                        "NORMAL" : 19,
                        "TEXCOORD_0" : 20
                    },
                    "indices" : 3
                }
            ]
        }
    ],
    "accessors" : [
        {
            "bufferView" : 0,
            "componentType" : 5126,
            "count" : 4,
            "max" : [
                1,
                0,
                1
            ],
            "min" : [
                -1,
                0,
                -1
            ],
            "type" : "VEC3"
        },
        {
            "bufferView" : 1,
            "componentType" : 5126,
            "count" : 4,
            "type" : "VEC3"
        },
        {
            "bufferView" : 2,
            "componentType" : 5126,
            "count" : 4,
            "type" : "VEC2"
        },
        {
            "bufferView" : 3,
            "componentType" : 5123,
            "count" : 6,
            "type" : "SCALAR"
        },
        {
            "bufferView" : 4,
            "componentType" : 5126,
            "count" : 14,
            "max" : [
                1,
                6.132354259490967,
                1
            ],
            "min" : [
                -1.0000001192092896,
                0,
                -1.056709885597229
            ],
            "type" : "VEC3"
        },
        {
            "bufferView" : 5,
            "componentType" : 5126,
            "count" : 14,
            "type" : "VEC3"
        },
        {
            "bufferView" : 6,
            "componentType" : 5126,
            "count" : 14,
            "type" : "VEC2"
        },
        {
            "bufferView" : 7,
            "componentType" : 5123,
            "count" : 42,
            "type" : "SCALAR"
        },
        {
            "bufferView" : 8,
            "componentType" : 5126,
            "count" : 20,
            "max" : [
                1,
                6.058131217956543,
                1
            ],
            "min" : [
                -1.0000001192092896,
                0,
                -4.079545021057129
            ],
            "type" : "VEC3"
        },
        {
            "bufferView" : 9,
            "componentType" : 5126,
            "count" : 20,
            "type" : "VEC3"
        },
        {
            "bufferView" : 10,
            "componentType" : 5126,
            "count" : 20,
            "type" : "VEC2"
        },
        {
            "bufferView" : 11,
            "componentType" : 5123,
            "count" : 54,
            "type" : "SCALAR"
        },
        {
            "bufferView" : 12,
            "componentType" : 5126,
            "count" : 14,
            "max" : [
                1,
                6.132354259490967,
                1
            ],
            "min" : [
                -1.0000001192092896,
                0,
                -1.056709885597229
            ],
            "type" : "VEC3"
        },
        {
            "bufferView" : 13,
            "componentType" : 5126,
            "count" : 14,
            "type" : "VEC3"
        },
        {
            "bufferView" : 14,
            "componentType" : 5126,
            "count" : 14,
            "type" : "VEC2"
        },
        {
            "bufferView" : 15,
            "componentType" : 5126,
            "count" : 20,
            "max" : [
                1,
                6.058131217956543,
                1
            ],
            "min" : [
                -1.0000001192092896,
                0,
                -4.079545021057129
            ],
            "type" : "VEC3"
        },
        {
            "bufferView" : 16,
            "componentType" : 5126,
            "count" : 20,
            "type" : "VEC3"
        },
        {
            "bufferView" : 17,
            "componentType" : 5126,
            "count" : 20,
            "type" : "VEC2"
        },
        {
            "bufferView" : 18,
            "componentType" : 5126,
            "count" : 4,
            "max" : [
                1,
                0,
                1
            ],
            "min" : [
                -1,
                0,
                -1
            ],
            "type" : "VEC3"
        },
        {
            "bufferView" : 19,
            "componentType" : 5126,
            "count" : 4,
            "type" : "VEC3"
        },
        {
            "bufferView" : 20,
            "componentType" : 5126,
            "count" : 4,
            "type" : "VEC2"
        }
    ],
    "bufferViews" : [
        {
            "buffer" : 0,
            "byteLength" : 48,
            "byteOffset" : 0
        },
        {
            "buffer" : 0,
            "byteLength" : 48,
            "byteOffset" : 48
        },
        {
            "buffer" : 0,
            "byteLength" : 32,
            "byteOffset" : 96
        },
        {
            "buffer" : 0,
            "byteLength" : 12,
            "byteOffset" : 128
        },
        {
            "buffer" : 0,
            "byteLength" : 168,
            "byteOffset" : 140
        },
        {
            "buffer" : 0,
            "byteLength" : 168,
            "byteOffset" : 308
        },
        {
            "buffer" : 0,
            "byteLength" : 112,
            "byteOffset" : 476
        },
        {
            "buffer" : 0,
            "byteLength" : 84,
            "byteOffset" : 588
        },
        {
            "buffer" : 0,
            "byteLength" : 240,
            "byteOffset" : 672
        },
        {
            "buffer" : 0,
            "byteLength" : 240,
            "byteOffset" : 912
        },
        {
            "buffer" : 0,
            "byteLength" : 160,
            "byteOffset" : 1152
        },
        {
            "buffer" : 0,
            "byteLength" : 108,
            "byteOffset" : 1312
        },
        {
            "buffer" : 0,
            "byteLength" : 168,
            "byteOffset" : 1420
        },
        {
            "buffer" : 0,
            "byteLength" : 168,
            "byteOffset" : 1588
        },
        {
            "buffer" : 0,
            "byteLength" : 112,
            "byteOffset" : 1756
        },
        {
            "buffer" : 0,
            "byteLength" : 240,
            "byteOffset" : 1868
        },
        {
            "buffer" : 0,
            "byteLength" : 240,
            "byteOffset" : 2108
        },
        {
            "buffer" : 0,
            "byteLength" : 160,
            "byteOffset" : 2348
        },
        {
            "buffer" : 0,
            "byteLength" : 48,
            "byteOffset" : 2508
        },
        {
            "buffer" : 0,
            "byteLength" : 48,
            "byteOffset" : 2556
        },
        {
            "buffer" : 0,
            "byteLength" : 32,
            "byteOffset" : 2604
        }
    ],
    "buffers" : [
        {
            "byteLength" : 2636,
            "uri" : "scene.bin"
        }
    ]
}
