{
  "accessors": [
    {
      "bufferView": 2,
      "componentType": 5126,
      "count": 11099,
      "max": [
        538.1689453125,
        17.00006103515625,
        261.24191284179688
      ],
      "min": [
        -538.1689453125,
        -17.000038146972656,
        210.58500671386719
      ],
      "type": "VEC3"
    },
    {
      "bufferView": 2,
      "byteOffset": 133188,
      "componentType": 5126,
      "count": 11099,
      "max": [
        1,
        1,
        1
      ],
      "min": [
        -1,
        -1,
        -1
      ],
      "type": "VEC3"
    },
    {
      "bufferView": 1,
      "componentType": 5126,
      "count": 11099,
      "max": [
        0.99308550357818604,
        0.99207305908203125
      ],
      "min": [
        0.017409596592187881,
        0.11519724875688553
      ],
      "type": "VEC2"
    },
    {
      "bufferView": 0,
      "componentType": 5125,
      "count": 36600,
      "max": [
        11098
      ],
      "min": [
        0
      ],
      "type": "SCALAR"
    },
    {
      "bufferView": 2,
      "byteOffset": 266376,
      "componentType": 5126,
      "count": 2803,
      "max": [
        535.1689453125,
        15.909567832946777,
        258.67156982421875
      ],
      "min": [
        -535.447021484375,
        -15.909603118896484,
        217.23477172851562
      ],
      "type": "VEC3"
    },
    {
      "bufferView": 2,
      "byteOffset": 300012,
      "componentType": 5126,
      "count": 2803,
      "max": [
        1,
        1,
        1
      ],
      "min": [
        -1,
        -1,
        -1
      ],
      "type": "VEC3"
    },
    {
      "bufferView": 1,
      "byteOffset": 88792,
      "componentType": 5126,
      "count": 2803,
      "max": [
        0.91871356964111328,
        0.99719905853271484
      ],
      "min": [
        0.0094875805079936981,
        0.11519724875688553
      ],
      "type": "VEC2"
    },
    {
      "bufferView": 0,
      "byteOffset": 146400,
      "componentType": 5125,
      "count": 8958,
      "max": [
        2802
      ],
      "min": [
        0
      ],
      "type": "SCALAR"
    },
    {
      "bufferView": 2,
      "byteOffset": 333648,
      "componentType": 5126,
      "count": 3712,
      "max": [
        61.931156158447266,
        21.340007781982422,
        120.59292602539062
      ],
      "min": [
        -4.7070417404174805,
        -21.153663635253906,
        31.469741821289062
      ],
      "type": "VEC3"
    },
    {
      "bufferView": 2,
      "byteOffset": 378192,
      "componentType": 5126,
      "count": 3712,
      "max": [
        0.99974638223648071,
        0.99102771282196045,
        0.99619483947753906
      ],
      "min": [
        -0.99619477987289429,
        -0.99102663993835449,
        -0.99999743700027466
      ],
      "type": "VEC3"
    },
    {
      "bufferView": 1,
      "byteOffset": 111216,
      "componentType": 5126,
      "count": 3712,
      "max": [
        0.69685578346252441,
        0.99006301164627075
      ],
      "min": [
        0.064941689372062683,
        0.65165811777114868
      ],
      "type": "VEC2"
    },
    {
      "bufferView": 0,
      "byteOffset": 182232,
      "componentType": 5125,
      "count": 10608,
      "max": [
        3711
      ],
      "min": [
        0
      ],
      "type": "SCALAR"
    },
    {
      "bufferView": 2,
      "byteOffset": 422736,
      "componentType": 5126,
      "count": 5074,
      "max": [
        98.42138671875,
        30.093175888061523,
        210.58497619628906
      ],
      "min": [
        -87.195045471191406,
        -29.906824111938477,
        -0.1834716796875
      ],
      "type": "VEC3"
    },
    {
      "bufferView": 2,
      "byteOffset": 483624,
      "componentType": 5126,
      "count": 5074,
      "max": [
        1,
        1,
        1
      ],
      "min": [
        -1,
        -1,
        -1
      ],
      "type": "VEC3"
    },
    {
      "bufferView": 1,
      "byteOffset": 140912,
      "componentType": 5126,
      "count": 5074,
      "max": [
        0.98791050910949707,
        0.77437233924865723
      ],
      "min": [
        0.0027704648673534393,
        0.0025054290890693665
      ],
      "type": "VEC2"
    },
    {
      "bufferView": 0,
      "byteOffset": 224664,
      "componentType": 5125,
      "count": 21936,
      "max": [
        5073
      ],
      "min": [
        0
      ],
      "type": "SCALAR"
    },
    {
      "bufferView": 2,
      "byteOffset": 544512,
      "componentType": 5126,
      "count": 768,
      "max": [
        68.431884765625,
        17.300613403320312,
        60.378364562988281
      ],
      "min": [
        37.867588043212891,
        -17.114263534545898,
        26.9306640625
      ],
      "type": "VEC3"
    },
    {
      "bufferView": 2,
      "byteOffset": 553728,
      "componentType": 5126,
      "count": 768,
      "max": [
        0.99998241662979126,
        1,
        0.9983518123626709
      ],
      "min": [
        -0.99315190315246582,
        -1,
        -0.9983515739440918
      ],
      "type": "VEC3"
    },
    {
      "bufferView": 1,
      "byteOffset": 181504,
      "componentType": 5126,
      "count": 768,
      "max": [
        0.57434892654418945,
        0.98533046245574951
      ],
      "min": [
        0.044344451278448105,
        0.81688868999481201
      ],
      "type": "VEC2"
    },
    {
      "bufferView": 0,
      "byteOffset": 312408,
      "componentType": 5125,
      "count": 3648,
      "max": [
        767
      ],
      "min": [
        0
      ],
      "type": "SCALAR"
    },
    {
      "bufferView": 2,
      "byteOffset": 562944,
      "componentType": 5126,
      "count": 148,
      "max": [
        46.433300018310547,
        8.8355026245117188,
        61.989543914794922
      ],
      "min": [
        33.660617828369141,
        -8.6491546630859375,
        47.404342651367188
      ],
      "type": "VEC3"
    },
    {
      "bufferView": 2,
      "byteOffset": 564720,
      "componentType": 5126,
      "count": 148,
      "max": [
        0.99982172250747681,
        1,
        0.76604306697845459
      ],
      "min": [
        -0.64278960227966309,
        -1,
        -0.98791205883026123
      ],
      "type": "VEC3"
    },
    {
      "bufferView": 1,
      "byteOffset": 187648,
      "componentType": 5126,
      "count": 148,
      "max": [
        0.53177976608276367,
        0.93308520317077637
      ],
      "min": [
        0.017409596592187881,
        0.71344989538192749
      ],
      "type": "VEC2"
    },
    {
      "bufferView": 0,
      "byteOffset": 327000,
      "componentType": 5125,
      "count": 384,
      "max": [
        147
      ],
      "min": [
        0
      ],
      "type": "SCALAR"
    },
    {
      "bufferView": 2,
      "byteOffset": 566496,
      "componentType": 5126,
      "count": 17,
      "max": [
        45.569526672363281,
        7.4053592681884766,
        59.560440063476562
      ],
      "min": [
        36.169158935546875,
        -7.219017505645752,
        48.357513427734375
      ],
      "type": "VEC3"
    },
    {
      "bufferView": 2,
      "byteOffset": 566700,
      "componentType": 5126,
      "count": 17,
      "max": [
        0.7660449743270874,
        7.5156191314817988e-07,
        -0.64278697967529297
      ],
      "min": [
        0.76604390144348145,
        -5.7095581951216445e-07,
        -0.6427883505821228
      ],
      "type": "VEC3"
    },
    {
      "bufferView": 1,
      "byteOffset": 188832,
      "componentType": 5126,
      "count": 17,
      "max": [
        0.6982274055480957,
        0.73381835222244263
      ],
      "min": [
        0.68403291702270508,
        0.719623863697052
      ],
      "type": "VEC2"
    },
    {
      "bufferView": 0,
      "byteOffset": 328536,
      "componentType": 5125,
      "count": 48,
      "max": [
        16
      ],
      "min": [
        0
      ],
      "type": "SCALAR"
    }
  ],
  "asset": {
    "extras": {
      "author": "Skover (https://sketchfab.com/Skover)",
      "license": "CC-BY-4.0 (http://creativecommons.org/licenses/by/4.0/)",
      "source": "https://sketchfab.com/3d-models/215237-and-215247-fuoco-lightstar-track-light-aaadbafb01864495a3ffbb94d47ccd38",
      "title": "215237 and 215247 Fuoco Lightstar track light"
    },
    "generator": "Sketchfab-8.83.0",
    "version": "2.0"
  },
  "bufferViews": [
    {
      "buffer": 0,
      "byteLength": 328728,
      "byteOffset": 0,
      "name": "floatBufferViews",
      "target": 34963
    },
    {
      "buffer": 0,
      "byteLength": 188968,
      "byteOffset": 328728,
      "byteStride": 8,
      "name": "floatBufferViews",
      "target": 34962
    },
    {
      "buffer": 0,
      "byteLength": 566904,
      "byteOffset": 517696,
      "byteStride": 12,
      "name": "floatBufferViews",
      "target": 34962
    }
  ],
  "buffers": [
    {
      "byteLength": 1084600,
      "uri": "scene.bin"
    }
  ],
  "images": [
    {
      "uri": "textures/Kraska_White_Bump_baseColor.jpeg"
    }
  ],
  "materials": [
    {
      "doubleSided": true,
      "name": "Kraska_white",
      "pbrMetallicRoughness": {
        "baseColorFactor": [
          0,
          0,
          0,
          1
        ],
        "metallicFactor": 0,
        "roughnessFactor": 0.59999999999999998
      }
    },
    {
      "doubleSided": true,
      "name": "Steel",
      "pbrMetallicRoughness": {
        "baseColorFactor": [
          0.67660926983200487,
          0.67660926983200487,
          0.67660926983200487,
          1
        ],
        "metallicFactor": 1,
        "roughnessFactor": 0.50171493899999997
      }
    },
    {
      "doubleSided": true,
      "name": "Metal_Chrom_gray",
      "pbrMetallicRoughness": {
        "baseColorFactor": [
          1,
          1,
          1,
          1
        ],
        "metallicFactor": 1,
        "roughnessFactor": 0.14805640240000001
      }
    },
    {
      "doubleSided": true,
      "name": "Kraska_White_Bump",
      "pbrMetallicRoughness": {
        "baseColorFactor": [
          1,
          1,
          1,
          1
        ],
        "baseColorTexture": {
          "index": 0,
          "texCoord": 0
        },
        "metallicFactor": 0,
        "roughnessFactor": 0.28747818737877656
      }
    },
    {
      "alphaMode": "BLEND",
      "doubleSided": true,
      "name": "Glass_Clear_Fog_green",
      "pbrMetallicRoughness": {
        "baseColorFactor": [
          1,
          1,
          1,
          0
        ],
        "metallicFactor": 0,
        "roughnessFactor": 0
      }
    },
    {
      "doubleSided": true,
      "name": "Plastic_light_gray",
      "pbrMetallicRoughness": {
        "baseColorFactor": [
          0.73951981710000003,
          0.73951981710000003,
          0.73951981710000003,
          1
        ],
        "metallicFactor": 0,
        "roughnessFactor": 0.59999999999999998
      }
    },
    {
      "doubleSided": true,
      "emissiveFactor": [
        1,
        1,
        1
      ],
      "name": "Yelow_LED_ceramika",
      "pbrMetallicRoughness": {
        "baseColorFactor": [
          1,
          1,
          1,
          1
        ],
        "metallicFactor": 0,
        "roughnessFactor": 0.59999999999999998
      }
    }
  ],
  "meshes": [
    {
      "name": "215236_Fuocco_Lightstar_Kraska_white_0",
      "primitives": [
        {
          "attributes": {
            "NORMAL": 1,
            "POSITION": 0,
            "TEXCOORD_0": 2
          },
          "indices": 3,
          "material": 0,
          "mode": 4
        }
      ]
    },
    {
      "name": "215236_Fuocco_Lightstar_Steel_0",
      "primitives": [
        {
          "attributes": {
            "NORMAL": 5,
            "POSITION": 4,
            "TEXCOORD_0": 6
          },
          "indices": 7,
          "material": 1,
          "mode": 4
        }
      ]
    },
    {
      "name": "215236_Fuocco_Lightstar_Metal_Chrom_gray_0",
      "primitives": [
        {
          "attributes": {
            "NORMAL": 9,
            "POSITION": 8,
            "TEXCOORD_0": 10
          },
          "indices": 11,
          "material": 2,
          "mode": 4
        }
      ]
    },
    {
      "name": "215236_Fuocco_Lightstar_Kraska_White_Bump_0",
      "primitives": [
        {
          "attributes": {
            "NORMAL": 13,
            "POSITION": 12,
            "TEXCOORD_0": 14
          },
          "indices": 15,
          "material": 3,
          "mode": 4
        }
      ]
    },
    {
      "name": "215236_Fuocco_Lightstar_Glass_Clear_Fog_green_0",
      "primitives": [
        {
          "attributes": {
            "NORMAL": 17,
            "POSITION": 16,
            "TEXCOORD_0": 18
          },
          "indices": 19,
          "material": 4,
          "mode": 4
        }
      ]
    },
    {
      "name": "215236_Fuocco_Lightstar_Plastic_light_gray_0",
      "primitives": [
        {
          "attributes": {
            "NORMAL": 21,
            "POSITION": 20,
            "TEXCOORD_0": 22
          },
          "indices": 23,
          "material": 5,
          "mode": 4
        }
      ]
    },
    {
      "name": "215236_Fuocco_Lightstar_Yelow_LED_ceramika_0",
      "primitives": [
        {
          "attributes": {
            "NORMAL": 25,
            "POSITION": 24,
            "TEXCOORD_0": 26
          },
          "indices": 27,
          "material": 6,
          "mode": 4
        }
      ]
    }
  ],
  "nodes": [
    {
      "children": [
        1
      ],
      "name": "RootNode (gltf orientation matrix)",
      "rotation": [
        -0.70710678118654746,
        -0,
        -0,
        0.70710678118654757
      ]
    },
    {
      "children": [
        2
      ],
      "matrix": [
        0.0029182587750256062,
        0,
        0,
        0,
        0,
        0.0029182587750256062,
        0,
        0,
        0,
        0,
        0.0029182587750256062,
        0,
        0,
        0,
        0,
        1
      ],
      "name": "RootNode (model correction matrix)"
    },
    {
      "children": [
        3
      ],
      "matrix": [
        1,
        0,
        0,
        0,
        0,
        0,
        1,
        0,
        0,
        -1,
        0,
        0,
        0,
        0,
        0,
        1
      ],
      "name": "817e52d44b0c469b8e9669b2e63bf896.fbx"
    },
    {
      "children": [
        4
      ],
      "name": "RootNode"
    },
    {
      "children": [
        5,
        6,
        7,
        8,
        9,
        10,
        11
      ],
      "matrix": [
        1,
        0,
        0,
        0,
        0,
        2.2204460492503131e-16,
        -1,
        0,
        0,
        1,
        2.2204460492503131e-16,
        0,
        0,
        0,
        0,
        1
      ],
      "name": "215236_Fuocco_Lightstar"
    },
    {
      "mesh": 0,
      "name": "215236_Fuocco_Lightstar_Kraska_white_0"
    },
    {
      "mesh": 1,
      "name": "215236_Fuocco_Lightstar_Steel_0"
    },
    {
      "mesh": 2,
      "name": "215236_Fuocco_Lightstar_Metal_Chrom_gray_0"
    },
    {
      "mesh": 3,
      "name": "215236_Fuocco_Lightstar_Kraska_White_Bump_0"
    },
    {
      "mesh": 4,
      "name": "215236_Fuocco_Lightstar_Glass_Clear_Fog_green_0"
    },
    {
      "mesh": 5,
      "name": "215236_Fuocco_Lightstar_Plastic_light_gray_0"
    },
    {
      "mesh": 6,
      "name": "215236_Fuocco_Lightstar_Yelow_LED_ceramika_0"
    }
  ],
  "samplers": [
    {
      "magFilter": 9729,
      "minFilter": 9987,
      "wrapS": 10497,
      "wrapT": 10497
    }
  ],
  "scene": 0,
  "scenes": [
    {
      "name": "OSG_Scene",
      "nodes": [
        0
      ]
    }
  ],
  "textures": [
    {
      "sampler": 0,
      "source": 0
    }
  ]
}

