{
    "asset" : {
        "generator" : "Khronos glTF Blender I/O v1.3.48",
        "version" : "2.0"
    },
    "scene" : 0,
    "scenes" : [
        {
            "name" : "Scene",
            "nodes" : [
                7,
                8,
                9,
                10
            ]
        }
    ],
    "nodes" : [
        {
            "mesh" : 0,
            "name" : "ind_window_roof_01_inst_001_ind_steel_beam_01_mt_0"
        },
        {
            "children" : [
                0
            ],
            "name" : "ind_window_roof_01_inst_001",
            "rotation" : [
                0,
                0.7071068286895752,
                0,
                0.7071068286895752
            ],
            "scale" : [
                0.009999999776482582,
                0.009999999776482582,
                0.009999999776482582
            ],
            "translation" : [
                -10.042601585388184,
                0,
                -3.0270843505859375
            ]
        },
        {
            "mesh" : 1,
            "name" : "ind_window_roof_02_inst_001_ind_glass_01_mt_0"
        },
        {
            "children" : [
                2
            ],
            "name" : "ind_window_roof_02_inst_001",
            "rotation" : [
                0,
                0.7071068286895752,
                0,
                0.7071068286895752
            ],
            "scale" : [
                0.009999999776482582,
                0.009999999776482582,
                0.009999999776482582
            ],
            "translation" : [
                -5.042601585388184,
                0,
                -3.0270843505859375
            ]
        },
        {
            "children" : [
                1,
                3
            ],
            "name" : "RootNode"
        },
        {
            "children" : [
                4
            ],
            "name" : "steelglass.fbx",
            "rotation" : [
                0.7071068286895752,
                0,
                0,
                0.7071068286895752
            ]
        },
        {
            "children" : [
                5
            ],
            "name" : "RootNode (model correction matrix)"
        },
        {
            "children" : [
                6
            ],
            "name" : "RootNode (gltf orientation matrix)",
            "rotation" : [
                -0.7071068286895752,
                0,
                0,
                0.7071068286895752
            ]
        },
        {
            "name" : "Camera.001",
            "rotation" : [
                0.483536034822464,
                0.33687159419059753,
                -0.20870360732078552,
                0.7804827094078064
            ],
            "translation" : [
                7.358891487121582,
                4.958309173583984,
                6.925790786743164
            ]
        },
        {
            "name" : "Light",
            "rotation" : [
                0.16907575726509094,
                0.7558803558349609,
                -0.27217137813568115,
                0.570947527885437
            ],
            "translation" : [
                4.076245307922363,
                5.903861999511719,
                -1.0054539442062378
            ]
        },
        {
            "name" : "Camera",
            "rotation" : [
                0.483536034822464,
                0.33687159419059753,
                -0.20870360732078552,
                0.7804827094078064
            ],
            "translation" : [
                7.358891487121582,
                4.958309173583984,
                6.925790786743164
            ]
        }
    ],
    "materials" : [
        {
            "doubleSided" : true,
            "emissiveFactor" : [
                0,
                0,
                0
            ],
            "name" : "ind_steel_beam_01_mt",
            "normalTexture" : {
                "index" : 0,
                "texCoord" : 0
            },
            "pbrMetallicRoughness" : {
                "baseColorTexture" : {
                    "index" : 1,
                    "texCoord" : 0
                },
                "metallicRoughnessTexture" : {
                    "index" : 2,
                    "texCoord" : 0
                }
            }
        },
        {
            "alphaMode" : "BLEND",
            "emissiveFactor" : [
                0,
                0,
                0
            ],
            "name" : "ind_glass_01_mt",
            "normalTexture" : {
                "index" : 3,
                "texCoord" : 1
            },
            "pbrMetallicRoughness" : {
                "baseColorTexture" : {
                    "index" : 4,
                    "texCoord" : 0
                },
                "metallicRoughnessTexture" : {
                    "index" : 5,
                    "texCoord" : 0
                }
            }
        }
    ],
    "meshes" : [
        {
            "name" : "ind_window_roof_01_inst_001_ind_steel_beam_01_mt_0",
            "primitives" : [
                {
                    "attributes" : {
                        "POSITION" : 0,
                        "NORMAL" : 1,
                        "TEXCOORD_0" : 2,
                        "TEXCOORD_1" : 3,
                        "TEXCOORD_2" : 4,
                        "TEXCOORD_3" : 5
                    },
                    "indices" : 6,
                    "material" : 0
                }
            ]
        },
        {
            "name" : "ind_window_roof_02_inst_001_ind_glass_01_mt_0",
            "primitives" : [
                {
                    "attributes" : {
                        "POSITION" : 7,
                        "NORMAL" : 8,
                        "TEXCOORD_0" : 9,
                        "TEXCOORD_1" : 10,
                        "TEXCOORD_2" : 11
                    },
                    "indices" : 6,
                    "material" : 1
                }
            ]
        }
    ],
    "textures" : [
        {
            "source" : 0
        },
        {
            "source" : 1
        },
        {
            "source" : 2
        },
        {
            "source" : 3
        },
        {
            "source" : 4
        },
        {
            "source" : 5
        }
    ],
    "images" : [
        {
            "mimeType" : "image/png",
            "name" : "ind_steel_beam_01_mt_normal",
            "uri" : "Textures/ind_steel_beam_01_mt_normal.png"
        },
        {
            "mimeType" : "image/png",
            "name" : "ind_steel_beam_01_mt_baseColor",
            "uri" : "Textures/ind_steel_beam_01_mt_baseColor.png"
        },
        {
            "mimeType" : "image/png",
            "name" : "ind_steel_beam_01_mt_metallicRoughness",
            "uri" : "Textures/ind_steel_beam_01_mt_metallicRoughness.png"
        },
        {
            "mimeType" : "image/png",
            "name" : "ind_glass_01_mt_normal",
            "uri" : "Textures/ind_glass_01_mt_normal.png"
        },
        {
            "mimeType" : "image/png",
            "name" : "ind_glass_01_mt_baseColor",
            "uri" : "Textures/ind_glass_01_mt_baseColor.png"
        },
        {
            "mimeType" : "image/png",
            "name" : "ind_glass_01_mt_metallicRoughness",
            "uri" : "Textures/ind_glass_01_mt_metallicRoughness.png"
        }
    ],
    "accessors" : [
        {
            "bufferView" : 0,
            "componentType" : 5126,
            "count" : 120,
            "max" : [
                288.2728271484375,
                172.8467559814453,
                490.538330078125
            ],
            "min" : [
                -288.272705078125,
                8.872194290161133,
                -0.8078552484512329
            ],
            "type" : "VEC3"
        },
        {
            "bufferView" : 1,
            "componentType" : 5126,
            "count" : 120,
            "type" : "VEC3"
        },
        {
            "bufferView" : 2,
            "componentType" : 5126,
            "count" : 120,
            "type" : "VEC2"
        },
        {
            "bufferView" : 3,
            "componentType" : 5126,
            "count" : 120,
            "type" : "VEC2"
        },
        {
            "bufferView" : 4,
            "componentType" : 5126,
            "count" : 120,
            "type" : "VEC2"
        },
        {
            "bufferView" : 5,
            "componentType" : 5126,
            "count" : 120,
            "type" : "VEC2"
        },
        {
            "bufferView" : 6,
            "componentType" : 5123,
            "count" : 120,
            "type" : "SCALAR"
        },
        {
            "bufferView" : 7,
            "componentType" : 5126,
            "count" : 120,
            "max" : [
                288.2728271484375,
                172.8467559814453,
                490.4383239746094
            ],
            "min" : [
                -288.272705078125,
                9.847702980041504,
                -0.707855224609375
            ],
            "type" : "VEC3"
        },
        {
            "bufferView" : 8,
            "componentType" : 5126,
            "count" : 120,
            "type" : "VEC3"
        },
        {
            "bufferView" : 9,
            "componentType" : 5126,
            "count" : 120,
            "type" : "VEC2"
        },
        {
            "bufferView" : 10,
            "componentType" : 5126,
            "count" : 120,
            "type" : "VEC2"
        },
        {
            "bufferView" : 11,
            "componentType" : 5126,
            "count" : 120,
            "type" : "VEC2"
        }
    ],
    "bufferViews" : [
        {
            "buffer" : 0,
            "byteLength" : 1440,
            "byteOffset" : 0
        },
        {
            "buffer" : 0,
            "byteLength" : 1440,
            "byteOffset" : 1440
        },
        {
            "buffer" : 0,
            "byteLength" : 960,
            "byteOffset" : 2880
        },
        {
            "buffer" : 0,
            "byteLength" : 960,
            "byteOffset" : 3840
        },
        {
            "buffer" : 0,
            "byteLength" : 960,
            "byteOffset" : 4800
        },
        {
            "buffer" : 0,
            "byteLength" : 960,
            "byteOffset" : 5760
        },
        {
            "buffer" : 0,
            "byteLength" : 240,
            "byteOffset" : 6720
        },
        {
            "buffer" : 0,
            "byteLength" : 1440,
            "byteOffset" : 6960
        },
        {
            "buffer" : 0,
            "byteLength" : 1440,
            "byteOffset" : 8400
        },
        {
            "buffer" : 0,
            "byteLength" : 960,
            "byteOffset" : 9840
        },
        {
            "buffer" : 0,
            "byteLength" : 960,
            "byteOffset" : 10800
        },
        {
            "buffer" : 0,
            "byteLength" : 960,
            "byteOffset" : 11760
        }
    ],
    "buffers" : [
        {
            "byteLength" : 12720,
            "uri" : "scene.bin"
        }
    ]
}
